HIERARCHY
ROOT mixamorig:Hips
{
	OFFSET -0.000008 104.274872 1.554316
	CHANNELS 6 Xposition Yposition Zposition Xrotation Yrotation Zrotation
	JOINT mixamorig:Spine
	{
		OFFSET -0.000005 10.181595 0.131519
		CHANNELS 6 Xposition Yposition Zposition Xrotation Yrotation Zrotation
		JOINT mixamorig:Spine1
		{
			OFFSET -0.000000 9.893959 -1.470707
			CHANNELS 6 Xposition Yposition Zposition Xrotation Yrotation Zrotation
			JOINT mixamorig:Spine2
			{
				OFFSET -0.000000 9.220757 -1.370641
				CHANNELS 6 Xposition Yposition Zposition Xrotation Yrotation Zrotation
				JOINT mixamorig:Neck
				{
					OFFSET 0.000001 16.740417 -2.049036
					CHANNELS 6 Xposition Yposition Zposition Xrotation Yrotation Zrotation
					JOINT mixamorig:Head
					{
						OFFSET 0.000000 9.617874 1.685006
						CHANNELS 6 Xposition Yposition Zposition Xrotation Yrotation Zrotation
						JOINT mixamorig:HeadTop_End
						{
							OFFSET 0.000002 22.037354 7.501101
							CHANNELS 6 Xposition Yposition Zposition Xrotation Yrotation Zrotation
							End Site
							{
								OFFSET 0.000168 2310.654297 -282.823242
							}
						}
					}
				}
				JOINT mixamorig:RightShoulder
				{
					OFFSET -4.569970 11.014908 -2.160885
					CHANNELS 6 Xposition Yposition Zposition Xrotation Yrotation Zrotation
					JOINT mixamorig:RightArm
					{
						OFFSET -10.592851 -0.524811 -2.232101
						CHANNELS 6 Xposition Yposition Zposition Xrotation Yrotation Zrotation
						JOINT mixamorig:RightForeArm
						{
							OFFSET -27.841511 0.000031 -0.000004
							CHANNELS 6 Xposition Yposition Zposition Xrotation Yrotation Zrotation
							JOINT mixamorig:RightHand
							{
								OFFSET -28.328831 -0.000015 0.000015
								CHANNELS 6 Xposition Yposition Zposition Xrotation Yrotation Zrotation
								JOINT mixamorig:RightHandThumb1
								{
									OFFSET -2.464806 -1.573990 2.681852
									CHANNELS 6 Xposition Yposition Zposition Xrotation Yrotation Zrotation
									JOINT mixamorig:RightHandThumb2
									{
										OFFSET -3.215179 -1.872803 1.924282
										CHANNELS 6 Xposition Yposition Zposition Xrotation Yrotation Zrotation
										JOINT mixamorig:RightHandThumb3
										{
											OFFSET -2.654831 -1.527969 1.512609
											CHANNELS 6 Xposition Yposition Zposition Xrotation Yrotation Zrotation
											JOINT mixamorig:RightHandThumb4
											{
												OFFSET -2.018814 -1.152008 1.108052
												CHANNELS 6 Xposition Yposition Zposition Xrotation Yrotation Zrotation
												End Site
												{
													OFFSET -188.809540 -114.533607 132.431396
												}
											}
										}
									}
								}
								JOINT mixamorig:RightHandIndex1
								{
									OFFSET -9.108284 -0.517868 2.259835
									CHANNELS 6 Xposition Yposition Zposition Xrotation Yrotation Zrotation
									JOINT mixamorig:RightHandIndex2
									{
										OFFSET -3.699989 0.000000 0.001215
										CHANNELS 6 Xposition Yposition Zposition Xrotation Yrotation Zrotation
										JOINT mixamorig:RightHandIndex3
										{
											OFFSET -2.850006 0.000031 -0.000522
											CHANNELS 6 Xposition Yposition Zposition Xrotation Yrotation Zrotation
											JOINT mixamorig:RightHandIndex4
											{
												OFFSET -2.772186 -0.000015 -0.000020
												CHANNELS 6 Xposition Yposition Zposition Xrotation Yrotation Zrotation
												End Site
												{
													OFFSET -277.218445 0.000000 -0.050231
												}
											}
										}
									}
								}
								JOINT mixamorig:RightHandMiddle1
								{
									OFFSET -9.532516 -0.000031 -0.000023
									CHANNELS 6 Xposition Yposition Zposition Xrotation Yrotation Zrotation
									JOINT mixamorig:RightHandMiddle2
									{
										OFFSET -3.700005 -0.000015 0.003713
										CHANNELS 6 Xposition Yposition Zposition Xrotation Yrotation Zrotation
										JOINT mixamorig:RightHandMiddle3
										{
											OFFSET -2.949974 0.000015 -0.002054
											CHANNELS 6 Xposition Yposition Zposition Xrotation Yrotation Zrotation
											JOINT mixamorig:RightHandMiddle4
											{
												OFFSET -2.946640 0.000000 -0.000156
												CHANNELS 6 Xposition Yposition Zposition Xrotation Yrotation Zrotation
												End Site
												{
													OFFSET -294.664337 0.000000 -0.113670
												}
											}
										}
									}
								}
								JOINT mixamorig:RightHandRing1
								{
									OFFSET -9.103600 -0.043076 -1.865134
									CHANNELS 6 Xposition Yposition Zposition Xrotation Yrotation Zrotation
									JOINT mixamorig:RightHandRing2
									{
										OFFSET -3.379288 0.000000 -0.001055
										CHANNELS 6 Xposition Yposition Zposition Xrotation Yrotation Zrotation
										JOINT mixamorig:RightHandRing3
										{
											OFFSET -2.889687 -0.000015 0.000379
											CHANNELS 6 Xposition Yposition Zposition Xrotation Yrotation Zrotation
											JOINT mixamorig:RightHandRing4
											{
												OFFSET -2.638809 -0.000015 0.000941
												CHANNELS 6 Xposition Yposition Zposition Xrotation Yrotation Zrotation
												End Site
												{
													OFFSET -263.880371 0.000000 0.516020
												}
											}
										}
									}
								}
								JOINT mixamorig:RightHandPinky1
								{
									OFFSET -8.076683 -0.486710 -3.806280
									CHANNELS 6 Xposition Yposition Zposition Xrotation Yrotation Zrotation
									JOINT mixamorig:RightHandPinky2
									{
										OFFSET -3.600014 -0.000015 -0.003747
										CHANNELS 6 Xposition Yposition Zposition Xrotation Yrotation Zrotation
										JOINT mixamorig:RightHandPinky3
										{
											OFFSET -2.099983 0.000000 -0.005739
											CHANNELS 6 Xposition Yposition Zposition Xrotation Yrotation Zrotation
											JOINT mixamorig:RightHandPinky4
											{
												OFFSET -2.115768 -0.000031 -0.003680
												CHANNELS 6 Xposition Yposition Zposition Xrotation Yrotation Zrotation
												End Site
												{
													OFFSET -211.577087 0.000000 -0.350686
												}
											}
										}
									}
								}
							}
						}
					}
				}
				JOINT mixamorig:LeftShoulder
				{
					OFFSET 4.570447 11.014725 -2.160855
					CHANNELS 6 Xposition Yposition Zposition Xrotation Yrotation Zrotation
					JOINT mixamorig:LeftArm
					{
						OFFSET 10.592371 -0.524597 -2.232119
						CHANNELS 6 Xposition Yposition Zposition Xrotation Yrotation Zrotation
						JOINT mixamorig:LeftForeArm
						{
							OFFSET 27.841532 -0.000031 0.000026
							CHANNELS 6 Xposition Yposition Zposition Xrotation Yrotation Zrotation
							JOINT mixamorig:LeftHand
							{
								OFFSET 28.328846 -0.000061 0.000022
								CHANNELS 6 Xposition Yposition Zposition Xrotation Yrotation Zrotation
								JOINT mixamorig:LeftHandThumb1
								{
									OFFSET 2.466141 -1.576172 2.681732
									CHANNELS 6 Xposition Yposition Zposition Xrotation Yrotation Zrotation
									JOINT mixamorig:LeftHandThumb2
									{
										OFFSET 3.217812 -1.872070 1.916482
										CHANNELS 6 Xposition Yposition Zposition Xrotation Yrotation Zrotation
										JOINT mixamorig:LeftHandThumb3
										{
											OFFSET 2.656029 -1.528778 1.514513
											CHANNELS 6 Xposition Yposition Zposition Xrotation Yrotation Zrotation
											JOINT mixamorig:LeftHandThumb4
											{
												OFFSET 2.020889 -1.154053 1.115139
												CHANNELS 6 Xposition Yposition Zposition Xrotation Yrotation Zrotation
												End Site
												{
													OFFSET 190.885437 -115.081749 130.048782
												}
											}
										}
									}
								}
								JOINT mixamorig:LeftHandIndex1
								{
									OFFSET 9.109314 -0.518021 2.259871
									CHANNELS 6 Xposition Yposition Zposition Xrotation Yrotation Zrotation
									JOINT mixamorig:LeftHandIndex2
									{
										OFFSET 3.699989 0.000000 -0.000322
										CHANNELS 6 Xposition Yposition Zposition Xrotation Yrotation Zrotation
										JOINT mixamorig:LeftHandIndex3
										{
											OFFSET 2.850006 0.000000 0.000352
											CHANNELS 6 Xposition Yposition Zposition Xrotation Yrotation Zrotation
											JOINT mixamorig:LeftHandIndex4
											{
												OFFSET 2.774864 -0.000031 -0.000027
												CHANNELS 6 Xposition Yposition Zposition Xrotation Yrotation Zrotation
												End Site
												{
													OFFSET 277.486267 0.000000 -0.009857
												}
											}
										}
									}
								}
								JOINT mixamorig:LeftHandMiddle1
								{
									OFFSET 9.533394 0.000061 0.000044
									CHANNELS 6 Xposition Yposition Zposition Xrotation Yrotation Zrotation
									JOINT mixamorig:LeftHandMiddle2
									{
										OFFSET 3.699989 -0.000015 -0.000231
										CHANNELS 6 Xposition Yposition Zposition Xrotation Yrotation Zrotation
										JOINT mixamorig:LeftHandMiddle3
										{
											OFFSET 2.949997 -0.000015 -0.000059
											CHANNELS 6 Xposition Yposition Zposition Xrotation Yrotation Zrotation
											JOINT mixamorig:LeftHandMiddle4
											{
												OFFSET 2.952896 0.000031 0.000063
												CHANNELS 6 Xposition Yposition Zposition Xrotation Yrotation Zrotation
												End Site
												{
													OFFSET 295.289337 0.000000 0.022810
												}
											}
										}
									}
								}
								JOINT mixamorig:LeftHandRing1
								{
									OFFSET 9.104523 -0.042999 -1.865074
									CHANNELS 6 Xposition Yposition Zposition Xrotation Yrotation Zrotation
									JOINT mixamorig:LeftHandRing2
									{
										OFFSET 3.150009 -0.000031 0.000043
										CHANNELS 6 Xposition Yposition Zposition Xrotation Yrotation Zrotation
										JOINT mixamorig:LeftHandRing3
										{
											OFFSET 2.949982 -0.000015 0.000040
											CHANNELS 6 Xposition Yposition Zposition Xrotation Yrotation Zrotation
											JOINT mixamorig:LeftHandRing4
											{
												OFFSET 2.644348 0.000000 0.000057
												CHANNELS 6 Xposition Yposition Zposition Xrotation Yrotation Zrotation
												End Site
												{
													OFFSET 264.434631 0.000000 0.012105
												}
											}
										}
									}
								}
								JOINT mixamorig:LeftHandPinky1
								{
									OFFSET 8.077789 -0.486847 -3.806259
									CHANNELS 6 Xposition Yposition Zposition Xrotation Yrotation Zrotation
									JOINT mixamorig:LeftHandPinky2
									{
										OFFSET 3.599953 0.000031 0.014727
										CHANNELS 6 Xposition Yposition Zposition Xrotation Yrotation Zrotation
										JOINT mixamorig:LeftHandPinky3
										{
											OFFSET 2.100021 0.000015 0.007705
											CHANNELS 6 Xposition Yposition Zposition Xrotation Yrotation Zrotation
											JOINT mixamorig:LeftHandPinky4
											{
												OFFSET 2.125504 0.000031 0.007517
												CHANNELS 6 Xposition Yposition Zposition Xrotation Yrotation Zrotation
												End Site
												{
													OFFSET 212.550781 0.000000 0.625752
												}
											}
										}
									}
								}
							}
						}
					}
				}
			}
		}
	}
	JOINT mixamorig:RightUpLeg
	{
		OFFSET -8.207787 -6.751648 -1.599560
		CHANNELS 6 Xposition Yposition Zposition Xrotation Yrotation Zrotation
		JOINT mixamorig:RightLeg
		{
			OFFSET -0.000002 -44.370117 0.345942
			CHANNELS 6 Xposition Yposition Zposition Xrotation Yrotation Zrotation
			JOINT mixamorig:RightFoot
			{
				OFFSET 0.000003 -44.423679 -3.043532
				CHANNELS 6 Xposition Yposition Zposition Xrotation Yrotation Zrotation
				JOINT mixamorig:RightToeBase
				{
					OFFSET -0.000002 -8.728671 10.710558
					CHANNELS 6 Xposition Yposition Zposition Xrotation Yrotation Zrotation
					JOINT mixamorig:RightToe_End
					{
						OFFSET -0.000001 -0.000679 9.278119
						CHANNELS 6 Xposition Yposition Zposition Xrotation Yrotation Zrotation
						End Site
						{
							OFFSET 0.000000 -0.067690 927.812134
						}
					}
				}
			}
		}
	}
	JOINT mixamorig:LeftUpLeg
	{
		OFFSET 8.207793 -6.751686 -1.599556
		CHANNELS 6 Xposition Yposition Zposition Xrotation Yrotation Zrotation
		JOINT mixamorig:LeftLeg
		{
			OFFSET -0.000004 -44.370014 0.346954
			CHANNELS 6 Xposition Yposition Zposition Xrotation Yrotation Zrotation
			JOINT mixamorig:LeftFoot
			{
				OFFSET -0.000001 -44.423672 -3.044401
				CHANNELS 6 Xposition Yposition Zposition Xrotation Yrotation Zrotation
				JOINT mixamorig:LeftToeBase
				{
					OFFSET -0.000002 -8.728669 10.710558
					CHANNELS 6 Xposition Yposition Zposition Xrotation Yrotation Zrotation
					JOINT mixamorig:LeftToe_End
					{
						OFFSET -0.000003 -0.000679 9.278133
						CHANNELS 6 Xposition Yposition Zposition Xrotation Yrotation Zrotation
						End Site
						{
							OFFSET 0.000000 -0.068021 927.813477
						}
					}
				}
			}
		}
	}
}
MOTION
Frames: 3
Frame Time: 0.033333
0.000006 104.270477 1.554256 0.000010 0.000003 -0.000113 -0.000005 10.181587 0.131522 0.000001 -0.000003 0.000084 -0.000000 9.893967 -1.470711 0.000001 0.000000 -0.000000 -0.000000 9.220802 -1.370642 0.000000 -0.000000 -0.000000 0.000001 16.740433 -2.049030 0.000000 -0.000000 -0.000000 0.000000 9.617859 1.685014 0.000000 0.000000 0.000000 0.000002 22.037384 7.501101 0.000000 -0.000000 0.000000 -4.569968 11.014880 -2.160881 0.000008 0.000001 -0.000038 -10.592872 -0.524688 -2.232014 71.520980 9.645918 -6.954664 -27.841528 0.000003 0.000534 -58.284893 117.104413 84.712357 -28.328819 0.000006 0.000025 -0.000320 -0.000044 0.000006 -2.464439 -1.573839 2.682374 -38.098525 -159.762387 13.050628 -3.215274 -1.872575 1.924643 157.253890 32.318252 5.849325 -2.654956 -1.527925 1.513101 149.303509 25.690157 -43.728087 -2.018846 -1.152004 1.108067 -0.000002 -0.000003 0.000007 -9.108397 -0.517569 2.260118 97.966530 18.077984 -20.783391 -3.700078 0.000316 0.001504 94.460266 16.025989 -17.279670 -2.850100 0.000364 -0.000261 93.235784 12.726230 -13.458429 -2.772153 -0.000017 -0.000009 -0.000003 -0.000002 0.000002 -9.532602 0.000271 0.000256 96.385533 15.990094 -18.009131 -3.700082 0.000318 0.003978 95.698634 13.105685 -14.359166 -2.950069 0.000327 -0.001797 96.190080 12.413750 -13.811940 -2.946635 -0.000002 -0.000150 0.000003 0.000000 0.000001 -9.103695 -0.042750 -1.864874 94.728201 16.308142 -17.643345 -3.379316 0.000319 -0.000790 95.601775 10.314773 -11.388601 -2.889746 0.000349 0.000663 98.761230 8.177226 -9.582148 -2.638813 0.000000 0.000934 0.000003 0.000001 -0.000002 -8.076759 -0.486386 -3.806019 88.118149 17.021984 -16.333737 -3.600052 0.000280 -0.003505 91.552805 9.231073 -9.115269 -2.100039 0.000322 -0.005492 91.955390 6.175025 -6.160371 -2.115760 -0.000040 -0.003681 0.000001 0.000001 -0.000003 4.570446 11.014691 -2.160851 -0.000018 0.000010 -0.000021 10.592362 -0.524521 -2.232305 72.251729 5.163513 -3.769987 27.841822 0.000092 -0.000226 102.020992 -66.006784 77.484193 28.328844 -0.000042 0.000023 0.000020 -0.000089 0.000001 2.466083 -1.576162 2.681892 -23.454499 153.893779 -39.114994 3.217764 -1.871715 1.916366 156.474101 -32.294176 -6.360904 2.656092 -1.528629 1.514436 141.404314 -27.640929 42.190557 2.020883 -1.154071 1.115149 0.000002 0.000003 0.000006 9.109382 -0.517838 2.259729 89.370348 -14.895883 14.722773 3.700041 0.000169 -0.000463 86.307035 -13.346612 12.535725 2.850058 0.000184 0.000198 84.023662 -11.588146 10.443889 2.774872 -0.000033 -0.000028 0.000000 -0.000001 0.000003 9.533459 0.000220 -0.000095 89.577576 -13.907650 13.797878 3.700050 0.000180 -0.000385 90.686382 -12.746585 12.896198 2.950065 0.000201 -0.000200 92.054093 -15.479932 16.041002 2.952872 -0.000028 0.000063 -0.000003 -0.000003 -0.000002 9.104585 -0.042841 -1.865235 87.534775 -13.309050 12.754922 3.150041 0.000215 -0.000085 91.712871 -12.555972 12.935759 2.950037 0.000171 -0.000067 94.422584 -13.800181 14.898680 2.644325 0.000033 0.000054 0.000002 -0.000002 -0.000000 8.077847 -0.486716 -3.806431 77.290079 -15.681327 13.036896 3.600003 0.000189 0.014567 78.479318 -14.302740 12.125503 2.100056 0.000182 0.007556 81.548449 -13.053845 11.692458 2.125511 -0.000029 0.007515 -0.000002 0.000001 0.000000 -8.207786 -6.751667 -1.599560 -0.077001 -0.000003 0.000080 -0.000002 -44.370110 0.345938 0.153719 -0.000000 -0.000000 0.000000 -44.423679 -3.043532 -0.076700 0.000000 -0.000002 -0.000006 -8.728667 10.710559 -0.000009 -0.000000 -0.000000 -0.000001 -0.000679 9.278123 0.000000 -0.000000 -0.000000 8.207792 -6.751710 -1.599556 -0.074518 -0.000003 0.000081 -0.000002 -44.370014 0.346960 0.148822 0.000002 0.000000 -0.000001 -44.423664 -3.044403 -0.074314 0.000000 -0.000002 -0.000004 -8.728671 10.710558 0.000007 -0.000000 -0.000000 0.000000 -0.000680 9.278137 -0.000000 0.000000 -0.000001 
0.000006 104.270477 1.554256 0.000010 0.000003 -0.000113 -0.000005 10.181587 0.131522 0.000001 -0.000003 0.000084 -0.000000 9.893967 -1.470711 0.000001 0.000000 -0.000000 -0.000000 9.220802 -1.370642 0.000000 -0.000000 -0.000000 0.000001 16.740433 -2.049030 0.000000 -0.000000 -0.000000 0.000000 9.617859 1.685014 0.000000 0.000000 0.000000 0.000002 22.037384 7.501101 0.000000 -0.000000 0.000000 -4.569968 11.014880 -2.160881 0.000008 0.000001 -0.000038 -10.592875 -0.524690 -2.232008 70.707409 10.770016 -7.651957 -27.841532 0.000016 0.000530 -57.555368 117.302038 84.076610 -28.328827 0.000021 0.000026 -0.000320 -0.000045 0.000006 -2.464396 -1.573808 2.682339 -42.863136 -159.966282 1.927073 -3.215287 -1.872586 1.924649 153.324483 32.067564 7.889264 -2.654964 -1.527887 1.513066 145.782219 27.380239 -34.599631 -2.018849 -1.151997 1.108063 -0.000001 -0.000001 0.000002 -9.108368 -0.517552 2.260129 99.478304 15.856221 -18.730853 -3.700060 0.000319 0.001512 96.961324 13.321713 -15.002096 -2.850077 0.000368 -0.000256 96.357618 10.380788 -11.592729 -2.772157 -0.000017 -0.000021 0.000001 0.000001 0.000000 -9.532564 0.000277 0.000229 94.144001 12.966407 -14.078699 -3.700066 0.000335 0.003948 94.252437 10.536678 -11.244084 -2.950052 0.000339 -0.001795 96.427730 10.307292 -11.518049 -2.946613 0.000014 -0.000153 0.000004 0.000001 -0.000002 -9.103673 -0.042734 -1.864873 93.297816 13.688782 -14.446214 -3.379322 0.000326 -0.000801 95.194908 7.955244 -8.727124 -2.889771 0.000356 0.000656 101.018020 6.068126 -7.414959 -2.638819 -0.000017 0.000946 0.000003 -0.000000 -0.000002 -8.076722 -0.486365 -3.806024 88.105697 14.174663 -13.576296 -3.600046 0.000296 -0.003512 91.040097 5.721425 -5.477813 -2.100003 0.000329 -0.005472 95.194559 3.254933 -3.332252 -2.115772 -0.000042 -0.003675 -0.000003 0.000002 -0.000005 4.570446 11.014691 -2.160851 -0.000018 0.000010 -0.000021 10.592356 -0.524538 -2.232271 72.204628 12.903365 -9.428665 27.841835 0.000097 -0.000244 101.446710 -65.613311 76.492463 28.328815 -0.000044 0.000016 0.000020 -0.000088 0.000000 2.466238 -1.576047 2.681839 7.361465 167.970348 -100.214988 3.217860 -1.871806 1.916397 166.487487 -23.496525 32.753318 2.656104 -1.528666 1.514492 144.335926 -25.958397 54.387451 2.020899 -1.154074 1.115124 0.000003 0.000004 0.000002 9.109383 -0.517863 2.259756 88.777767 -19.806444 19.383863 3.700043 0.000165 -0.000470 87.078854 -13.474235 12.826092 2.850048 0.000186 0.000208 86.092950 -10.503660 9.813081 2.774877 -0.000016 -0.000024 -0.000001 -0.000002 -0.000002 9.533463 0.000206 -0.000088 88.290577 -18.365684 17.825769 3.700060 0.000199 -0.000383 91.433693 -11.032103 11.307178 2.950045 0.000195 -0.000207 92.313196 -10.476007 10.908157 2.952871 -0.000048 0.000066 -0.000000 -0.000001 0.000001 9.104585 -0.042850 -1.865219 88.253974 -17.842503 17.317053 3.150036 0.000212 -0.000087 91.818301 -12.405557 12.804249 2.950001 0.000210 -0.000091 92.713821 -10.043382 10.529849 2.644309 0.000046 0.000064 0.000000 0.000001 0.000000 8.077835 -0.486721 -3.806388 80.044216 -19.644285 17.055913 3.600019 0.000183 0.014569 80.870662 -16.954891 14.930184 2.100049 0.000176 0.007561 83.341354 -12.178275 11.278800 2.125519 -0.000031 0.007518 -0.000003 -0.000001 -0.000003 -8.207786 -6.751667 -1.599560 -0.077001 -0.000003 0.000080 -0.000002 -44.370110 0.345938 0.153719 -0.000000 -0.000000 0.000000 -44.423679 -3.043532 -0.076700 0.000000 -0.000002 -0.000006 -8.728667 10.710559 -0.000009 -0.000000 -0.000000 -0.000001 -0.000679 9.278123 0.000000 -0.000000 -0.000000 8.207792 -6.751710 -1.599556 -0.074518 -0.000003 0.000081 -0.000002 -44.370014 0.346960 0.148822 0.000002 0.000000 -0.000001 -44.423664 -3.044403 -0.074314 0.000000 -0.000002 -0.000004 -8.728671 10.710558 0.000007 -0.000000 -0.000000 0.000000 -0.000680 9.278137 -0.000000 0.000000 -0.000001 
0.000006 104.270477 1.554256 0.000010 0.000003 -0.000113 -0.000005 10.181587 0.131522 0.000001 -0.000003 0.000084 -0.000000 9.893967 -1.470711 0.000001 0.000000 -0.000000 -0.000000 9.220802 -1.370642 0.000000 -0.000000 -0.000000 0.000001 16.740433 -2.049030 0.000000 -0.000000 -0.000000 0.000000 9.617859 1.685014 0.000000 0.000000 0.000000 0.000002 22.037384 7.501101 0.000000 -0.000000 0.000000 -4.569968 11.014880 -2.160881 0.000008 0.000001 -0.000038 -10.592883 -0.524717 -2.231978 69.288922 17.015207 -11.802779 -27.841522 0.000009 0.000544 -54.870697 114.282855 77.579870 -28.328835 0.000004 0.000022 -0.000316 -0.000045 0.000007 -2.464445 -1.573997 2.682389 -18.443111 -149.526283 44.985552 -3.215250 -1.872531 1.924634 151.422685 34.119752 24.418775 -2.654963 -1.527879 1.513062 151.221181 27.150637 -28.805828 -2.018823 -1.151997 1.108068 -0.000001 0.000000 0.000004 -9.108402 -0.517582 2.260152 103.100804 20.011051 -25.115241 -3.700078 0.000321 0.001518 98.956853 13.507118 -15.748389 -2.850078 0.000354 -0.000265 97.332566 9.548178 -10.847204 -2.772170 0.000002 -0.000021 0.000000 -0.000000 -0.000001 -9.532587 0.000269 0.000229 91.720650 15.076635 -15.675996 -3.700055 0.000362 0.003965 93.329139 9.623104 -10.098829 -2.950051 0.000328 -0.001807 94.475122 9.054986 -9.780482 -2.946647 0.000014 -0.000160 -0.000003 0.000000 -0.000000 -9.103695 -0.042753 -1.864865 95.083583 16.002151 -17.418767 -3.379318 0.000333 -0.000780 98.777294 8.332634 -9.731691 -2.889733 0.000379 0.000661 102.379905 4.689312 -5.883338 -2.638823 -0.000021 0.000941 -0.000004 -0.000000 0.000002 -8.076746 -0.486365 -3.806017 91.287951 14.836778 -15.019622 -3.600020 0.000286 -0.003495 95.057751 7.157450 -7.435934 -2.100000 0.000320 -0.005447 97.546938 4.376651 -4.748254 -2.115748 -0.000047 -0.003681 -0.000007 -0.000001 -0.000002 4.570446 11.014691 -2.160851 -0.000018 0.000010 -0.000021 10.592353 -0.524545 -2.232265 71.865707 15.630552 -11.361649 27.841831 0.000103 -0.000230 101.014516 -66.281815 76.775998 28.328825 -0.000044 0.000023 0.000021 -0.000088 -0.000000 2.466252 -1.575930 2.681823 25.813805 185.266054 -135.793013 3.217874 -1.871875 1.916443 171.659019 -16.757924 49.283773 2.656109 -1.528677 1.514492 145.136985 -25.169104 59.837184 2.020883 -1.154073 1.115151 0.000001 0.000000 0.000003 9.109392 -0.517882 2.259768 87.462758 -24.672581 23.621475 3.700058 0.000143 -0.000447 84.902161 -17.254864 15.819727 2.850062 0.000181 0.000200 85.412526 -13.701401 12.653748 2.774864 -0.000030 -0.000028 0.000001 -0.000002 0.000003 9.533483 0.000197 -0.000067 87.207261 -21.465242 20.456896 3.700060 0.000190 -0.000377 91.316706 -12.606682 12.894589 2.950054 0.000212 -0.000195 92.721560 -11.116510 11.656889 2.952864 -0.000046 0.000062 -0.000000 -0.000001 0.000001 9.104600 -0.042871 -1.865197 87.243680 -20.826034 19.869393 3.150060 0.000197 -0.000095 91.447217 -14.614943 14.986557 2.950012 0.000190 -0.000084 92.816930 -10.484859 11.012092 2.644333 0.000028 0.000062 -0.000001 -0.000000 -0.000000 8.077848 -0.486734 -3.806395 79.292008 -22.058699 18.865754 3.600005 0.000156 0.014563 79.800959 -18.592499 16.039904 2.100038 0.000177 0.007542 83.959773 -13.262906 12.384703 2.125497 -0.000014 0.007511 -0.000004 0.000005 -0.000001 -8.207786 -6.751667 -1.599560 -0.077001 -0.000003 0.000080 -0.000002 -44.370110 0.345938 0.153719 -0.000000 -0.000000 0.000000 -44.423679 -3.043532 -0.076700 0.000000 -0.000002 -0.000006 -8.728667 10.710559 -0.000009 -0.000000 -0.000000 -0.000001 -0.000679 9.278123 0.000000 -0.000000 -0.000000 8.207792 -6.751710 -1.599556 -0.074518 -0.000003 0.000081 -0.000002 -44.370014 0.346960 0.148822 0.000002 0.000000 -0.000001 -44.423664 -3.044403 -0.074314 0.000000 -0.000002 -0.000004 -8.728671 10.710558 0.000007 -0.000000 -0.000000 0.000000 -0.000680 9.278137 -0.000000 0.000000 -0.000001 
